<svg width="60" height="61" viewBox="0 0 60 61" fill="none" xmlns="http://www.w3.org/2000/svg">
<g clip-path="url(#clip0_89_57)">
<path d="M24.105 4.81625C25.155 2.71625 27.0487 0.5 30 0.5C32.9513 0.5 34.845 2.72 35.895 4.81625C36.9787 6.9875 37.5 9.61625 37.5 11.75V25.5912L56.8875 35.285C57.8226 35.7518 58.6092 36.47 59.159 37.3589C59.7087 38.2478 60 39.2723 60 40.3175V45.5C59.9999 45.7722 59.9405 46.0411 59.826 46.288C59.7115 46.5349 59.5446 46.7539 59.3369 46.9298C59.1292 47.1058 58.8857 47.2344 58.6234 47.3067C58.361 47.379 58.086 47.3934 57.8175 47.3488L37.1663 43.9062L35.76 52.355L40.7025 57.2975C40.9654 57.5597 41.1445 57.8941 41.2171 58.2583C41.2898 58.6224 41.2526 59 41.1104 59.343C40.9683 59.686 40.7274 59.9791 40.4185 60.1851C40.1095 60.3911 39.7463 60.5007 39.375 60.5H20.625C20.2537 60.5007 19.8905 60.3911 19.5816 60.1851C19.2726 59.9791 19.0317 59.686 18.8896 59.343C18.7474 59 18.7102 58.6224 18.7829 58.2583C18.8555 57.8941 19.0346 57.5597 19.2975 57.2975L24.2438 52.355L22.8338 43.9062L2.1825 47.3488C1.91401 47.3934 1.63902 47.379 1.37664 47.3067C1.11426 47.2344 0.870766 47.1058 0.663087 46.9298C0.455408 46.7539 0.288518 46.5349 0.174011 46.288C0.0595039 46.0411 0.000125287 45.7722 0 45.5L0 40.3175C3.53063e-05 39.2723 0.291272 38.2478 0.841043 37.3589C1.39081 36.47 2.17738 35.7518 3.1125 35.285L22.5 25.5912V11.75C22.5 9.62 23.025 6.98375 24.105 4.81625ZM27.4575 6.49625C26.6663 8.075 26.25 10.1338 26.25 11.75V26.75C26.25 27.0979 26.1532 27.439 25.9704 27.735C25.7876 28.031 25.5261 28.2704 25.215 28.4263L4.785 38.6412C4.47395 38.7971 4.2124 39.0365 4.02961 39.3325C3.84683 39.6285 3.75001 39.9696 3.75 40.3175V43.2875L24.0675 39.9012C24.5572 39.8199 25.0593 39.936 25.4635 40.2242C25.8677 40.5125 26.1411 40.9492 26.2238 41.4387L28.0988 52.6887C28.1484 52.984 28.1267 53.2868 28.0353 53.5719C27.944 53.857 27.7857 54.1161 27.5738 54.3275L25.155 56.75H34.8525L32.4263 54.3275C32.2148 54.1165 32.0569 53.858 31.9656 53.5736C31.8743 53.2892 31.8522 52.9871 31.9012 52.6925L33.7762 41.4425C33.8167 41.1994 33.9047 40.9667 34.0352 40.7576C34.1657 40.5485 34.3361 40.3672 34.5367 40.2241C34.7373 40.0809 34.9642 39.9787 35.2044 39.9233C35.4445 39.868 35.6932 39.8604 35.9363 39.9012L56.25 43.2875V40.3175C56.25 39.9696 56.1532 39.6285 55.9704 39.3325C55.7876 39.0365 55.5261 38.7971 55.215 38.6412L34.785 28.4263C34.4739 28.2704 34.2124 28.031 34.0296 27.735C33.8468 27.439 33.75 27.0979 33.75 26.75V11.75C33.75 10.13 33.3375 8.07875 32.5425 6.49625C31.7175 4.84625 30.7987 4.25 30 4.25C29.2013 4.25 28.2825 4.8425 27.4575 6.49625Z" fill="#FF0000"/>
</g>
<defs>
<clipPath id="clip0_89_57">
<rect width="60" height="60" fill="white" transform="translate(0 0.5)"/>
</clipPath>
</defs>
</svg>
