<svg width="40" height="40" viewBox="0 0 40 40" fill="none" xmlns="http://www.w3.org/2000/svg">
<rect width="40" height="40" rx="9" fill="#050023"/>
<path d="M33 11.5V26.5C33 27.3513 32.3512 28 31.5 28H30V14.3868L21 20.8518L12 14.3868V28H10.5C9.64875 28 9 27.3513 9 26.5V11.5C9 11.074 9.1605 10.699 9.42975 10.4335C9.56998 10.2932 9.73699 10.1825 9.92085 10.1081C10.1047 10.0336 10.3017 9.99684 10.5 10H11.0003L21 17.2503L30.9998 10H31.5C31.926 10 32.301 10.1605 32.5702 10.4335C32.8395 10.699 33 11.074 33 11.5Z" fill="#FF0000"/>
</svg>
