<svg width="60" height="61" viewBox="0 0 60 61" fill="none" xmlns="http://www.w3.org/2000/svg">
<g clip-path="url(#clip0_89_141)">
<path d="M25 13.8333H40V17.1666H25V13.8333Z" fill="#FF0000"/>
<path d="M25 20.5H40V23.8333H25V20.5Z" fill="#FF0000"/>
<path d="M25 27.1667H40V30.5001H25V27.1667Z" fill="#FF0000"/>
<path d="M25 33.8333H40V37.1666H25V33.8333Z" fill="#FF0000"/>
<path d="M25 40.5H40V43.8333H25V40.5Z" fill="#FF0000"/>
<path d="M18.3333 13.8333H21.6667V17.1666H18.3333V13.8333Z" fill="#FF0000"/>
<path d="M18.3333 20.5H21.6667V23.8333H18.3333V20.5Z" fill="#FF0000"/>
<path d="M18.3333 27.1667H21.6667V30.5001H18.3333V27.1667Z" fill="#FF0000"/>
<path d="M18.3333 33.8333H21.6667V37.1666H18.3333V33.8333Z" fill="#FF0000"/>
<path d="M18.3333 40.5H21.6667V43.8333H18.3333V40.5Z" fill="#FF0000"/>
<path d="M46.6667 3.83325H13.3333C12.4493 3.83325 11.6014 4.18444 10.9763 4.80956C10.3512 5.43468 10 6.28253 10 7.16659V53.8333C10 54.7173 10.3512 55.5652 10.9763 56.1903C11.6014 56.8154 12.4493 57.1666 13.3333 57.1666H46.6667C47.5507 57.1666 48.3986 56.8154 49.0237 56.1903C49.6488 55.5652 50 54.7173 50 53.8333V7.16659C50 6.28253 49.6488 5.43468 49.0237 4.80956C48.3986 4.18444 47.5507 3.83325 46.6667 3.83325ZM46.6667 53.8333H13.3333V7.16659H46.6667V53.8333Z" fill="#FF0000"/>
</g>
<defs>
<clipPath id="clip0_89_141">
<rect width="60" height="60" fill="white" transform="translate(0 0.5)"/>
</clipPath>
</defs>
</svg>
