<svg width="60" height="61" viewBox="0 0 60 61" fill="none" xmlns="http://www.w3.org/2000/svg">
<g clip-path="url(#clip0_89_139)">
<path fill-rule="evenodd" clip-rule="evenodd" d="M41.25 4.25H18.75C17.7554 4.25 16.8016 4.64509 16.0984 5.34835C15.3951 6.05161 15 7.00544 15 8V30.5C15 30.9973 14.8025 31.4742 14.4508 31.8258C14.0992 32.1775 13.6223 32.375 13.125 32.375C12.6277 32.375 12.1508 32.1775 11.7992 31.8258C11.4475 31.4742 11.25 30.9973 11.25 30.5V8C11.25 6.01088 12.0402 4.10322 13.4467 2.6967C14.8532 1.29018 16.7609 0.5 18.75 0.5L41.25 0.5C43.2391 0.5 45.1468 1.29018 46.5533 2.6967C47.9598 4.10322 48.75 6.01088 48.75 8V30.5C48.75 30.9973 48.5525 31.4742 48.2008 31.8258C47.8492 32.1775 47.3723 32.375 46.875 32.375C46.3777 32.375 45.9008 32.1775 45.5492 31.8258C45.1975 31.4742 45 30.9973 45 30.5V8C45 7.00544 44.6049 6.05161 43.9016 5.34835C43.1984 4.64509 42.2446 4.25 41.25 4.25ZM45 53C45 53.9946 44.6049 54.9484 43.9016 55.6516C43.1984 56.3549 42.2446 56.75 41.25 56.75H18.75C17.7554 56.75 16.8016 56.3549 16.0984 55.6516C15.3951 54.9484 15 53.9946 15 53V45.5C15 45.0027 14.8025 44.5258 14.4508 44.1742C14.0992 43.8225 13.6223 43.625 13.125 43.625C12.6277 43.625 12.1508 43.8225 11.7992 44.1742C11.4475 44.5258 11.25 45.0027 11.25 45.5V53C11.25 54.9891 12.0402 56.8968 13.4467 58.3033C14.8532 59.7098 16.7609 60.5 18.75 60.5H41.25C43.2391 60.5 45.1468 59.7098 46.5533 58.3033C47.9598 56.8968 48.75 54.9891 48.75 53V45.5C48.75 45.0027 48.5525 44.5258 48.2008 44.1742C47.8492 43.8225 47.3723 43.625 46.875 43.625C46.3777 43.625 45.9008 43.8225 45.5492 44.1742C45.1975 44.5258 45 45.0027 45 45.5V53ZM6.42375 30.3275C6.87528 30.1191 7.22555 29.7399 7.39749 29.2733C7.56944 28.8067 7.54899 28.2909 7.34062 27.8394C7.23746 27.6158 7.09126 27.4147 6.91038 27.2477C6.72951 27.0806 6.5175 26.9508 6.28645 26.8656C5.81984 26.6937 5.30403 26.7141 4.8525 26.9225C3.55125 27.5225 2.4 28.2275 1.545 29.06C0.69 29.9075 0 31.0212 0 32.375C0 34.4225 1.53 35.9 3.08625 36.8787C4.73625 37.9212 6.9975 38.7913 9.63 39.4888C14.9175 40.8988 22.1175 41.75 30 41.75C30.3713 41.75 30.7387 41.75 31.1025 41.7425L26.7975 46.0475C26.6232 46.2218 26.4849 46.4288 26.3905 46.6566C26.2962 46.8843 26.2476 47.1285 26.2476 47.375C26.2476 47.6215 26.2962 47.8657 26.3905 48.0934C26.4849 48.3212 26.6232 48.5282 26.7975 48.7025C27.1496 49.0546 27.6271 49.2524 28.125 49.2524C28.3715 49.2524 28.6157 49.2038 28.8434 49.1095C29.0712 49.0151 29.2782 48.8768 29.4525 48.7025L36.9525 41.2025C37.1271 41.0283 37.2656 40.8214 37.3602 40.5936C37.4547 40.3658 37.5033 40.1216 37.5033 39.875C37.5033 39.6284 37.4547 39.3842 37.3602 39.1564C37.2656 38.9286 37.1271 38.7217 36.9525 38.5475L29.4525 31.0475C29.2782 30.8732 29.0712 30.7349 28.8434 30.6405C28.6157 30.5462 28.3715 30.4976 28.125 30.4976C27.8785 30.4976 27.6343 30.5462 27.4066 30.6405C27.1788 30.7349 26.9718 30.8732 26.7975 31.0475C26.6232 31.2218 26.4849 31.4288 26.3905 31.6566C26.2962 31.8843 26.2476 32.1285 26.2476 32.375C26.2476 32.6215 26.2962 32.8657 26.3905 33.0934C26.4849 33.3212 26.6232 33.5282 26.7975 33.7025L31.0913 37.9925L30 38C22.35 38 15.4875 37.1712 10.5975 35.8662C8.1375 35.21 6.28125 34.4637 5.085 33.71C3.795 32.8963 3.75 32.3975 3.75 32.375C3.75 32.3638 3.75 32.1537 4.17 31.7375C4.60125 31.3175 5.3325 30.83 6.42 30.3275H6.42375ZM55.1475 26.9225C54.696 26.7141 54.1802 26.6937 53.7135 26.8656C53.2469 27.0376 52.8677 27.3878 52.6594 27.8394C52.451 28.2909 52.4306 28.8067 52.6025 29.2733C52.7745 29.7399 53.1247 30.1191 53.5762 30.3275C54.6712 30.83 55.3988 31.3175 55.8263 31.7413C56.25 32.1538 56.25 32.3638 56.25 32.375C56.25 32.3862 56.25 32.6188 55.7625 33.0763C55.2675 33.5338 54.4425 34.0513 53.2238 34.5762C50.805 35.6263 47.2388 36.5375 42.8625 37.1525C42.377 37.2298 41.9412 37.4946 41.649 37.8901C41.3569 38.2856 41.2318 38.7799 41.3006 39.2667C41.3695 39.7536 41.6268 40.1939 42.0171 40.4928C42.4074 40.7917 42.8996 40.9254 43.3875 40.865C47.9325 40.2275 51.8625 39.2525 54.7125 38.0225C56.1375 37.4075 57.3862 36.6838 58.3125 35.8212C59.235 34.9625 60 33.8075 60 32.375C60 31.0175 59.31 29.9 58.455 29.0638C57.6 28.2275 56.4487 27.5225 55.1475 26.9225ZM28.125 8C27.6277 8 27.1508 8.19754 26.7992 8.54918C26.4475 8.90081 26.25 9.37772 26.25 9.875C26.25 10.3723 26.4475 10.8492 26.7992 11.2008C27.1508 11.5525 27.6277 11.75 28.125 11.75H31.875C32.3723 11.75 32.8492 11.5525 33.2008 11.2008C33.5525 10.8492 33.75 10.3723 33.75 9.875C33.75 9.37772 33.5525 8.90081 33.2008 8.54918C32.8492 8.19754 32.3723 8 31.875 8H28.125Z" fill="#FF0000"/>
</g>
<defs>
<clipPath id="clip0_89_139">
<rect width="60" height="60" fill="white" transform="translate(0 0.5)"/>
</clipPath>
</defs>
</svg>
