<svg width="60" height="61" viewBox="0 0 60 61" fill="none" xmlns="http://www.w3.org/2000/svg">
<path d="M30 55.125C29.1264 55.1386 28.2644 54.9231 27.5 54.5L26.75 54.075C20.9082 50.7698 16.0482 45.9736 12.6662 40.1759C9.28422 34.3783 7.50148 27.7869 7.5 21.075V20.725C7.49208 19.8397 7.71935 18.9682 8.15859 18.1995C8.59782 17.4308 9.23328 16.7926 10 16.35L27.5 6.49995C28.2601 6.06111 29.1223 5.83008 30 5.83008C30.8777 5.83008 31.7399 6.06111 32.5 6.49995L50 16.35C50.7667 16.7926 51.4022 17.4308 51.8414 18.1995C52.2807 18.9682 52.5079 19.8397 52.5 20.725V21.075C52.4935 27.7919 50.7032 34.3866 47.3122 40.1847C43.9212 45.9828 39.0511 50.7763 33.2 54.075L32.45 54.5C31.7004 54.9147 30.8567 55.13 30 55.125ZM30 10.875L12.5 20.725V21.075C12.5042 26.9027 14.0575 32.6246 17.0008 37.6545C19.944 42.6844 24.1714 46.8415 29.25 49.7L30 50.125L30.75 49.7C35.8286 46.8415 40.056 42.6844 42.9992 37.6545C45.9425 32.6246 47.4958 26.9027 47.5 21.075V20.725L30 10.875Z" fill="#FF0000"/>
</svg>
